<?xml version="1.0" encoding="UTF-8"?>
<svg version="1.1" xmlns="http://www.w3.org/2000/svg" width="2628" height="576">
<path d="M0 0 C18.15 0 36.3 0 55 0 C55 94.05 55 188.1 55 285 C36.85 285 18.7 285 0 285 C-0.33 275.76 -0.66 266.52 -1 257 C-2.588125 258.815 -4.17625 260.63 -5.8125 262.5 C-20.43994501 278.6525918 -40.41979025 287.86057657 -62.13964844 289.12451172 C-90.06703007 290.12236091 -113.9386633 282.30570744 -134.93359375 263.3515625 C-158.44871441 241.35997789 -166.87404011 211.36525576 -168 180 C-168.52318785 148.03263422 -158.68806037 117.35545225 -136.234375 94.140625 C-119.59632831 78.45332383 -97.93241615 68.89397554 -75 68 C-74.15695313 67.96003906 -73.31390625 67.92007813 -72.4453125 67.87890625 C-49.62458387 67.31665641 -27.27527888 75.08044097 -10 90 C-7.03 92.97 -4.06 95.94 -1 99 C-0.67 66.33 -0.34 33.66 0 0 Z M-96.4765625 133.50390625 C-107.99367355 146.73510239 -112.89196113 163.44555589 -112.2734375 180.859375 C-110.47794317 201.48190988 -103.79771814 217.20314604 -87.6875 230.8125 C-76.11629138 239.35987361 -61.7859927 242.51003898 -47.6796875 240.53515625 C-32.07829863 237.63775546 -19.48440956 230.20723514 -10.3046875 217.0859375 C0.56346093 199.70991576 2.66261253 178.58394678 -1.83203125 158.76953125 C-6.93114405 142.31252841 -16.05847546 130.34126372 -31.1875 121.92333984 C-53.21940232 110.69965254 -79.38853523 116.2272099 -96.4765625 133.50390625 Z " fill="#FFFFFF" transform="translate(2141,139)"/>
<path d="M0 0 C6.42923077 5.85846154 6.42923077 5.85846154 8 9 C8.33 -0.24 8.66 -9.48 9 -19 C27.15 -19 45.3 -19 64 -19 C64 51.29 64 121.58 64 194 C45.85 194 27.7 194 9 194 C8.67 184.76 8.34 175.52 8 166 C6.39125 167.835625 4.7825 169.67125 3.125 171.5625 C-11.48541879 187.66355741 -32.51663752 196.68792015 -54.09179688 198.14086914 C-80.93210148 199.36116102 -104.93564475 191.84227333 -125.125 173.8125 C-148.07194603 152.43492473 -158.06471594 122.64307404 -159.16015625 91.83984375 C-159.95651958 59.668807 -151.57671466 29.33347335 -129.3671875 5.44140625 C-115.30104248 -9.06575652 -97.29644075 -19.32850267 -77 -22 C-76.19433594 -22.10957031 -75.38867188 -22.21914062 -74.55859375 -22.33203125 C-46.77123564 -25.59345826 -21.29071741 -18.1247035 0 0 Z M-86.1875 41.09765625 C-100.17805541 56.12160496 -103.7956939 73.7676148 -103.13623047 93.73583984 C-102.13284608 110.41216034 -95.16956731 124.74315024 -83 136 C-82.5359375 136.46921875 -82.071875 136.9384375 -81.59375 137.421875 C-72.47330114 146.09524304 -60.09214384 149.86271342 -47.75 150.3125 C-32.07003225 149.91497969 -18.54054003 144.30429449 -7.21484375 133.4375 C4.80524455 120.20904304 9.6451411 102.67852568 9.25390625 85.046875 C7.7127193 66.55263156 2.4084167 51.36940809 -11.20703125 38.17578125 C-33.88191826 20.51156857 -65.15777823 20.93165519 -86.1875 41.09765625 Z " fill="#FFFFFF" transform="translate(789,230)"/>
<path d="M0 0 C15.98152273 13.76280364 28.76235082 31.42359974 34.77954102 51.7956543 C35.04469009 52.69011765 35.30983917 53.58458099 35.58302307 54.50614929 C35.88223915 55.52404289 35.88223915 55.52404289 36.1875 56.5625 C28.11211341 56.8646629 20.03911105 57.09513574 11.9594574 57.23605824 C8.20677163 57.30372496 4.4579691 57.39533468 0.70751953 57.54321289 C-2.91737378 57.68523415 -6.53855413 57.76233094 -10.16601562 57.79590416 C-11.54437786 57.81979888 -12.92255163 57.86647721 -14.29931641 57.93699074 C-18.75743946 58.1560894 -22.59843932 58.09541687 -26.8125 56.5625 C-30.42432238 52.576612 -32.46165219 48.40082651 -34.8125 43.5625 C-45.29710298 28.94670047 -62.27030913 22.17486962 -79.421875 19.09375 C-81.55906997 18.8209166 -83.66035404 18.65519543 -85.8125 18.5625 C-86.56273437 18.52253906 -87.31296875 18.48257813 -88.0859375 18.44140625 C-110.04935311 17.83723462 -130.82148518 25.54506295 -146.8125 40.5625 C-164.73932128 59.74955476 -170.83832061 85.12756458 -170.09765625 110.796875 C-168.84746259 136.21922314 -160.71362829 159.07848396 -141.8125 176.5625 C-125.30788227 190.60032587 -103.93715109 194.8652994 -82.8125 193.5625 C-65.47379897 191.86712394 -48.51580909 185.10782719 -37.140625 171.49609375 C-33.20448986 166.35725065 -30.03916841 161.20916973 -26.8125 155.5625 C-6.0225 155.5625 14.7675 155.5625 36.1875 155.5625 C34.23553666 162.06904448 32.49066728 167.60198866 29.4375 173.5 C29.08679443 174.18602295 28.73608887 174.8720459 28.37475586 175.57885742 C12.63307682 205.92182304 -12.66116497 226.80405788 -44.9921875 237.30810547 C-53.16706351 239.82218039 -61.34228106 241.44564624 -69.8125 242.5625 C-70.74578125 242.69269531 -71.6790625 242.82289063 -72.640625 242.95703125 C-108.7756369 247.11366605 -147.18286479 238.45630193 -176.09667969 215.94238281 C-204.84465794 192.82292164 -221.74542154 160.83698418 -226.37109375 124.3984375 C-230.2534582 87.67009921 -222.30889792 48.91079119 -199.21484375 19.4609375 C-175.04615415 -9.69868475 -143.23129799 -27.24940881 -105.27685547 -31.24121094 C-66.58343747 -34.32319113 -30.00018973 -24.96769995 0 0 Z " fill="#FFFFFF" transform="translate(407.8125,183.4375)"/>
<path d="M0 0 C16.31872668 15.05815088 31.45427239 32.71335858 37.78125 54.56640625 C37.78125 55.88640625 37.78125 57.20640625 37.78125 58.56640625 C29.81880447 58.82192043 21.85808517 59.01702808 13.89254665 59.13634014 C10.19308092 59.19362451 6.49642942 59.27121409 2.79858398 59.39624023 C-0.77433 59.51627839 -4.34454957 59.58162684 -7.91932487 59.61005592 C-9.27881252 59.63029537 -10.63816134 59.66982932 -11.99649239 59.72943687 C-16.28482989 59.91003814 -20.11587333 59.88476206 -24.21875 58.56640625 C-27.43750207 55.26470397 -29.26351811 51.70356874 -31.21875 47.56640625 C-43.3079922 31.95955846 -59.24961941 23.4461188 -78.78125 20.87890625 C-99.5809789 19.08968226 -120.60350923 23.43517067 -137.40625 36.31640625 C-147.01749007 44.46673783 -153.53491509 53.45768108 -159.21875 64.56640625 C-159.62996094 65.36304688 -160.04117187 66.1596875 -160.46484375 66.98046875 C-171.7081942 91.7420888 -169.79239999 123.52994616 -160.90625 148.62890625 C-153.86735104 165.35966305 -140.65292899 180.53783298 -124.21875 188.56640625 C-103.06116491 196.99219921 -80.37385624 198.742373 -58.90625 190.25390625 C-48.76395647 185.66475603 -40.32488366 180.29755625 -33.21875 171.56640625 C-32.54031728 169.76128621 -31.86210515 167.95606307 -31.19358826 166.14724731 C-29.56102671 162.3820476 -27.75617015 159.74074855 -24.21875 157.56640625 C-14.76799259 155.24783882 -4.51399276 156.18710297 5.14007568 156.60510254 C8.8194808 156.74920111 12.50021817 156.81243974 16.18164062 156.8828125 C23.38518023 157.03227858 30.58207308 157.270654 37.78125 157.56640625 C37.48621662 158.98106048 37.18573952 160.39457991 36.88305664 161.80761719 C36.7163295 162.59489197 36.54960236 163.38216675 36.37782288 164.19329834 C35.43421072 167.94689421 33.89523982 171.3399087 32.21875 174.81640625 C31.86723877 175.55020508 31.51572754 176.28400391 31.15356445 177.04003906 C27.68773565 184.07109172 23.57337924 190.34832635 18.78125 196.56640625 C18.15694092 197.37803223 18.15694092 197.37803223 17.52001953 198.20605469 C-3.17171782 224.76187869 -33.75272397 240.0981505 -66.84326172 244.54638672 C-103.48543539 248.94281155 -142.99049364 242.11465433 -172.61328125 218.97265625 C-175.924599 216.28802792 -179.08477913 213.4545174 -182.21875 210.56640625 C-182.7250293 210.10927246 -183.23130859 209.65213867 -183.75292969 209.18115234 C-202.83020309 191.81311442 -215.39954864 168.5962009 -221.21875 143.56640625 C-221.53585937 142.30441406 -221.85296875 141.04242188 -222.1796875 139.7421875 C-227.17482259 117.38235649 -226.08842021 90.60299063 -220.21875 68.56640625 C-220.03683105 67.87788574 -219.85491211 67.18936523 -219.66748047 66.47998047 C-210.21357732 32.22119827 -186.91210967 4.53056552 -156.53125 -13.12109375 C-109.53769775 -39.33222661 -41.37332047 -35.82780011 0 0 Z " fill="#FFFFFF" transform="translate(1659.21875,181.43359375)"/>
<path d="M0 0 C19.54497864 17.7325526 29.8639119 40.9841644 33.15991211 66.95507812 C33.24732362 69.22596308 33.29047629 71.49891882 33.29272461 73.77148438 C33.29401367 75.03025391 33.29530273 76.28902344 33.29663086 77.5859375 C33.29276367 78.88337891 33.28889648 80.18082031 33.28491211 81.51757812 C33.2887793 82.81888672 33.29264648 84.12019531 33.29663086 85.4609375 C33.29469727 87.3471582 33.29469727 87.3471582 33.29272461 89.27148438 C33.29159668 90.41045166 33.29046875 91.54941895 33.28930664 92.72290039 C33.15991211 95.95507812 33.15991211 95.95507812 32.15991211 101.95507812 C-19.32008789 101.95507812 -70.80008789 101.95507812 -123.84008789 101.95507812 C-120.23589667 117.7869117 -120.23589667 117.7869117 -112.84008789 130.95507812 C-112.40180664 131.58285156 -111.96352539 132.210625 -111.51196289 132.85742188 C-105.0168001 141.38698911 -94.26387618 147.076112 -83.84008789 148.95507812 C-80.29643898 149.25824744 -76.77082436 149.3604461 -73.21508789 149.39257812 C-72.3444873 149.40281006 -71.47388672 149.41304199 -70.5769043 149.42358398 C-59.32060568 149.27175879 -48.77908344 145.66880143 -40.57446289 137.77539062 C-37.67687152 134.58804012 -35.2116321 131.85723789 -33.55932617 127.84521484 C-30.32994759 124.41287657 -29.5180894 124.49080782 -24.9699707 124.27392578 C-22.49418151 124.27487588 -20.01826646 124.30878448 -17.54321289 124.36914062 C-15.5873526 124.38187515 -15.5873526 124.38187515 -13.59197998 124.39486694 C-10.13236992 124.41773065 -6.67428151 124.47662704 -3.215271 124.54309082 C0.31713271 124.6045698 3.84978338 124.63189358 7.38256836 124.66210938 C14.30897306 124.72637682 21.23436946 124.82872331 28.15991211 124.95507812 C27.53478333 126.87054527 26.90617963 128.78487857 26.27612305 130.69873047 C25.9264447 131.76489594 25.57676636 132.8310614 25.2164917 133.92953491 C21.53530842 144.47069925 15.43902421 153.58101483 8.15991211 161.95507812 C7.71647461 162.54160156 7.27303711 163.128125 6.81616211 163.73242188 C-7.74674685 182.60204477 -32.87331746 192.45820608 -55.75024414 195.45117188 C-85.15079298 198.6962782 -115.3712018 193.32821492 -139.25805664 175.03710938 C-140.53616211 174.00650391 -140.53616211 174.00650391 -141.84008789 172.95507812 C-142.6818457 172.27832031 -143.52360352 171.6015625 -144.39086914 170.90429688 C-165.03917107 153.33878963 -175.97774744 127.53686502 -178.84008789 100.95507812 C-179.1222225 95.86784912 -179.17463979 90.79938164 -179.15258789 85.70507812 C-179.15043274 85.02498688 -179.14827759 84.34489563 -179.14605713 83.64419556 C-178.9894458 52.78678396 -169.2281632 25.33390272 -148.02758789 2.70507812 C-109.34782048 -34.11433975 -39.95786891 -34.84618619 0 0 Z M-110.72290039 35.58007812 C-117.90120863 43.6324977 -122.84008789 54.08991256 -122.84008789 64.95507812 C-89.84008789 64.95507812 -56.84008789 64.95507812 -22.84008789 64.95507812 C-25.18592358 49.70714612 -28.45994609 39.550931 -40.84008789 29.95507812 C-63.52322436 15.67358351 -91.14361052 16.57853779 -110.72290039 35.58007812 Z " fill="#FFFFFF" transform="translate(2412.840087890625,232.044921875)"/>
<path d="M0 0 C21.90206091 19.48502533 32.033956 47.63791433 34.16845703 76.25878906 C35.73762993 104.81904887 27.37266442 132.97734047 9 155 C8.21753906 155.94617188 7.43507813 156.89234375 6.62890625 157.8671875 C-12.00813793 179.39670094 -39.00170241 190.67253416 -67 193 C-97.10741884 194.59679273 -126.86079664 188.26221537 -150 168 C-150.69480469 167.43667969 -151.38960937 166.87335938 -152.10546875 166.29296875 C-171.81285247 150.01627079 -182.55353164 124.05099187 -185.68359375 99.1796875 C-188.33084382 69.17752007 -183.9073975 37.56237026 -164.75 13.3125 C-163.19140749 11.51985265 -161.60677087 9.74959495 -160 8 C-159.56204102 7.5143457 -159.12408203 7.02869141 -158.67285156 6.52832031 C-118.21724417 -37.92431252 -44.48879066 -39.04878778 0 0 Z M-118.0078125 39.16015625 C-129.85698265 53.29195875 -132.08193298 72.78030944 -130.7265625 90.59375 C-129.14868347 107.12274632 -124.32203147 121.72854573 -111.92578125 133.41015625 C-100.01616451 143.24223335 -86.28528543 146.26325087 -71.17626953 145.22753906 C-57.00314593 143.74567332 -44.2224318 136.65187143 -35.125 125.75390625 C-23.25263782 109.76203909 -20.3510811 90.05825845 -22.6875 70.625 C-25.23577488 53.61399944 -32.03845969 41.23098043 -45 30 C-68.74840051 12.56087605 -98.7609851 18.45296646 -118.0078125 39.16015625 Z " fill="#FFFFFF" transform="translate(1915,235)"/>
<path d="M0 0 C0 15.18 0 30.36 0 46 C-6.27 46.99 -12.54 47.98 -19 49 C-25.24416416 52.12208208 -29.28974434 54.32961042 -31.5703125 61.01953125 C-33.20224498 66.15157728 -33.75898548 71.21480004 -34.1875 76.5625 C-34.455625 79.676875 -34.72375 82.79125 -35 86 C-22.46 86 -9.92 86 3 86 C3 100.85 3 115.7 3 131 C-9.54 131 -22.08 131 -35 131 C-35 186.44 -35 241.88 -35 299 C-53.15 299 -71.3 299 -90 299 C-90 243.56 -90 188.12 -90 131 C-97.92 131 -105.84 131 -114 131 C-114 116.15 -114 101.3 -114 86 C-106.08 86 -98.16 86 -90 86 C-90.061875 82.885625 -90.12375 79.77125 -90.1875 76.5625 C-90.31177246 56.10693365 -86.12822869 35.72895434 -71.75 20.25 C-52.11796882 1.97340972 -25.3812201 0 0 0 Z " fill="#FFFFFF" transform="translate(1000,125)"/>
<path d="M0 0 C18.15 0 36.3 0 55 0 C55 17.49 55 34.98 55 53 C70.84 53 86.68 53 103 53 C103 67.85 103 82.7 103 98 C87.16 98 71.32 98 55 98 C55.0908308 116.79796652 55.0908308 116.79796652 55.20898438 135.59570312 C55.26325515 143.26568741 55.3143676 150.93559945 55.34643555 158.60571289 C55.37249857 164.79148341 55.41292285 170.97701053 55.46318626 177.16263008 C55.47983458 179.5192111 55.49136149 181.87583421 55.49761391 184.23246574 C55.50727685 187.54057029 55.53536359 190.84805493 55.56762695 194.15600586 C55.56619186 195.1241774 55.56475677 196.09234894 55.5632782 197.08985901 C55.64515092 203.04960106 56.27062461 208.61235124 59 214 C64.66185766 218.81860226 69.64220525 219.15050869 76.828125 219.31640625 C77.82465088 219.34438293 77.82465088 219.34438293 78.84130859 219.3729248 C81.31074379 219.44095681 83.78038667 219.50127465 86.25 219.5625 C91.7775 219.706875 97.305 219.85125 103 220 C103 235.18 103 250.36 103 266 C96.18980523 266.09262071 89.38185974 266.1720185 82.5715332 266.21972656 C80.26253795 266.23964693 77.95359183 266.26679324 75.64477539 266.30175781 C53.75010001 266.62464611 32.91195326 265.4501545 16.25 249.40234375 C-0.99815891 230.98634075 -0.29990068 207.8915993 -0.1953125 184.23046875 C-0.19157671 181.73798232 -0.18873241 179.24549441 -0.18673706 176.75300598 C-0.17914518 170.2314337 -0.15953536 163.70995223 -0.1373291 157.18841553 C-0.11567415 150.51820643 -0.10771485 143.84796885 -0.09765625 137.17773438 C-0.07628487 124.11844352 -0.04113945 111.05924356 0 98 C-8.25 98 -16.5 98 -25 98 C-25 83.15 -25 68.3 -25 53 C-16.75 53 -8.5 53 0 53 C0 35.51 0 18.02 0 0 Z " fill="#FFFFFF" transform="translate(1045,158)"/>
<path d="M0 0 C25.5581872 0.79869335 50.34864931 2.90953483 69.00390625 22.62890625 C84.26982543 40.76278677 86.09930277 65.13486443 86.19923019 87.82834244 C86.21119852 90.31197799 86.23069433 92.79545316 86.25234985 95.27902222 C86.31336248 102.33407092 86.3677855 109.38909864 86.40136719 116.44433594 C86.42254767 120.78082813 86.45802652 125.11701785 86.50212479 129.45333481 C86.51609518 131.0868151 86.52496329 132.72034878 86.52817917 134.35388565 C86.56027734 149.09939381 86.70079381 166.22621959 96.71484375 178.01953125 C106.98844935 187.99900499 121.53520853 188.28473994 135 190 C135 203.2 135 216.4 135 230 C126.09 230.99 126.09 230.99 117 232 C107.02811479 234.32677321 98.76500617 238.21522869 93 247 C86.90243234 258.55328608 86.71043471 271.3405077 86.69503975 284.10273743 C86.69130921 286.59610944 86.67440172 289.08910661 86.65428162 291.58239746 C86.59952521 298.66325809 86.568427 305.74417272 86.54370117 312.82519531 C86.28921713 379.03196948 86.28921713 379.03196948 65.625 400.9375 C47.60749042 417.72724061 23.33403973 419.48952531 0 419 C0 408.11 0 397.22 0 386 C4.62 385.67 9.24 385.34 14 385 C24.46469704 383.01170756 34.04930581 379.68090342 40.76171875 370.9453125 C49.31795012 357.50366196 49.43635663 339.99620911 49.38012505 324.57958794 C49.37081867 321.78859674 49.38145418 318.99825002 49.39674377 316.20729065 C49.43632162 308.28606854 49.43805175 300.36490833 49.43579102 292.44360352 C49.43573945 287.56089041 49.45512316 282.67853123 49.48512459 277.7959156 C49.49577508 275.07743306 49.48393076 272.35967734 49.47129822 269.64122009 C49.50394102 253.52347271 51.39809852 237.84237844 63.18359375 225.76171875 C72.44095462 217.69002972 83.90190862 213.43201898 96 212 C96 210.68 96 209.36 96 208 C94.99582031 207.79246094 93.99164062 207.58492187 92.95703125 207.37109375 C78.25549398 204.14163498 65.16659669 198.62384936 56.4453125 185.6953125 C49.82979982 173.75607365 49.56547064 160.38615903 49.58930969 147.11253929 C49.59386741 144.3467169 49.57956673 141.58150813 49.56091309 138.81575012 C49.52447068 132.9396761 49.51048563 127.06367025 49.5 121.1875 C49.48782254 114.37666135 49.46584079 107.56612875 49.41999817 100.75542641 C49.40665965 98.06315378 49.4105553 95.37129213 49.41540527 92.67900085 C49.36475379 76.56476658 48.74477807 57.18348672 37.4375 44.5625 C26.92158481 35.21070826 13.36837106 34.62819904 0 33 C0 22.11 0 11.22 0 0 Z " fill="#FFFFFF" transform="translate(2475,93)"/>
<path d="M0 0 C0 10.89 0 21.78 0 33 C-4.640625 33.61875 -4.640625 33.61875 -9.375 34.25 C-20.98785961 35.93658072 -32.16844894 38.47584455 -39.72265625 48.22265625 C-46.4151138 58.59843195 -48.14092278 70.29050421 -48.15771484 82.43530273 C-48.16279556 83.2494313 -48.16787628 84.06355988 -48.17311096 84.90235901 C-48.18376175 86.66086716 -48.19240239 88.41938842 -48.19923019 90.17791557 C-48.21111915 92.97635071 -48.23060013 95.77463834 -48.25234985 98.57301331 C-48.31360641 106.52673303 -48.36777224 114.48043755 -48.40136719 122.43432617 C-48.42251473 127.31198682 -48.45797789 132.18937693 -48.50212479 137.06688118 C-48.51613064 138.90969688 -48.52497168 140.75256043 -48.52817917 142.59542656 C-48.56260378 160.49120576 -49.29030859 179.09610939 -62 193 C-71.25112932 201.84650737 -82.73790271 205.32581921 -95 208 C-95 209.32 -95 210.64 -95 212 C-94.12601563 212.12955078 -94.12601563 212.12955078 -93.234375 212.26171875 C-78.20438787 214.83761277 -65.13258785 221.62949464 -56 234 C-48.29436819 246.12227443 -48.56466502 262.47970072 -48.58930969 276.34524727 C-48.59387707 279.14428169 -48.5795431 281.94271288 -48.56091309 284.74168396 C-48.51839117 291.68534452 -48.50693868 298.62898612 -48.49468994 305.57275391 C-48.48307066 311.46864299 -48.45926651 317.36425146 -48.41999817 323.26002312 C-48.40662944 325.98895251 -48.41055968 328.71747833 -48.41540527 331.44642639 C-48.36809261 346.68441721 -47.60983039 362.94813932 -36.8125 374.8125 C-26.23171775 384.54406546 -13.85280536 385.0105139 0 386 C0 396.89 0 407.78 0 419 C-25.00495815 419.55566574 -47.56938116 416.30859073 -67 399 C-82.62413596 380.53747934 -85.43989199 357.59733324 -85.44140625 334.21484375 C-85.45323643 332.57734536 -85.46661386 330.93985752 -85.48143005 329.30238342 C-85.51713955 325.04300721 -85.53766783 320.78372446 -85.55297852 316.52423096 C-85.57806599 309.70863923 -85.61836661 302.89325388 -85.67487907 296.07785225 C-85.69083784 293.73576221 -85.69494963 291.39387941 -85.69789124 289.05174255 C-85.73341525 281.59955997 -86.0417724 274.25080162 -86.87866211 266.84204102 C-86.99145303 265.81736048 -86.99145303 265.81736048 -87.10652256 264.77197933 C-88.28003306 255.37810255 -91.37285004 245.12865913 -99 239 C-109.41706263 231.99110758 -121.8203236 231.10724331 -134 230 C-134 216.8 -134 203.6 -134 190 C-130.7825 189.608125 -127.565 189.21625 -124.25 188.8125 C-113.18608936 187.32161842 -102.28173562 185.18399033 -94.55859375 176.3515625 C-85.43086095 162.29421791 -85.87354648 145.33104731 -85.80076981 129.2065239 C-85.78874964 126.77258623 -85.76924416 124.33880843 -85.74765015 121.90493774 C-85.68680166 114.99315904 -85.63224913 108.08140328 -85.59863281 101.16943359 C-85.57740487 96.9149149 -85.54189443 92.66070178 -85.49787521 88.40636063 C-85.48394518 86.80802686 -85.47504638 85.20963923 -85.47182083 83.61124802 C-85.42065202 60.68201172 -81.95799306 36.77320013 -65.75 19.25 C-48.06760445 2.86143827 -23.07664211 0 0 0 Z " fill="#FFFFFF" transform="translate(151,93)"/>
<path d="M0 0 C0 18.81 0 37.62 0 57 C-7.92 57.33 -15.84 57.66 -24 58 C-35.20436486 59.71679784 -47.62717081 62.61639921 -55 72 C-67.38188148 88.9830036 -65.31605538 111.71357803 -65.4140625 131.72265625 C-65.43281217 134.16459276 -65.45238828 136.60652304 -65.4727478 139.04844666 C-65.52367404 145.41863303 -65.56350909 151.78884032 -65.60089111 158.15911865 C-65.64828753 165.83289838 -65.70971314 173.50657756 -65.76873779 181.18027496 C-65.8564672 192.7868085 -65.92657673 204.3933275 -66 216 C-83.82 216 -101.64 216 -120 216 C-120 145.71 -120 75.42 -120 3 C-102.18 3 -84.36 3 -66 3 C-65.67 12.9 -65.34 22.8 -65 33 C-62.36 29.7 -59.72 26.4 -57 23 C-42.13820132 6.05754951 -21.9436337 0 0 0 Z " fill="#FFFFFF" transform="translate(609,208)"/>
<path d="M0 0 C10.89 0 21.78 0 33 0 C33 27.39 33 54.78 33 83 C60.06 83 87.12 83 115 83 C115 93.23 115 103.46 115 114 C87.94 114 60.88 114 33 114 C33 141.39 33 168.78 33 197 C22.11 197 11.22 197 0 197 C0 169.61 0 142.22 0 114 C-27.06 114 -54.12 114 -82 114 C-82 84 -82 84 -81 83 C-78.47455024 82.904956 -75.97666582 82.8744415 -73.45092773 82.88647461 C-72.64792016 82.88635407 -71.84491259 82.88623354 -71.01757145 82.88610935 C-68.40621782 82.88685851 -65.79493469 82.89448688 -63.18359375 82.90234375 C-61.57621291 82.90381316 -59.9688316 82.90483388 -58.3614502 82.90539551 C-52.38679286 82.91064852 -46.41214574 82.92460959 -40.4375 82.9375 C-27.093125 82.958125 -13.74875 82.97875 0 83 C0 55.61 0 28.22 0 0 Z " fill="#FFFFFF" transform="translate(1274,185)"/>
</svg>
